<svg width="512" height="512" viewBox="0 0 512 512" fill="none" xmlns="http://www.w3.org/2000/svg">
<path d="M504.923 218.696H458.866C456.92 208.083 454.148 197.705 450.669 187.74L490.711 164.626C494.072 162.681 495.252 158.317 493.306 154.956L462.64 101.83C460.694 98.4693 456.33 97.29 452.968 99.2358L413.044 122.291C406.085 114.154 398.537 106.606 390.457 99.5896L413.634 59.4943C415.58 56.1334 414.4 51.7701 411.039 49.8243L357.905 19.1632C354.543 17.2174 350.179 18.3967 348.233 21.7576L325.175 61.676C315.208 58.1381 304.888 55.3079 294.273 53.3621V7.07564C294.273 3.18404 291.089 0 287.197 0H225.865C221.973 0 218.788 3.18404 218.788 7.07564V53.1852C208.173 55.131 197.853 57.9023 187.828 61.3811L164.71 21.3448C162.764 17.9839 158.4 16.8046 155.039 18.7504L101.905 49.4115C98.5432 51.3573 97.3638 55.7206 99.3098 59.0816L122.368 99C114.23 105.958 106.622 113.505 99.6637 121.583L59.5623 98.4693C56.2009 96.5235 51.8369 97.7028 49.8908 101.064L19.2251 154.19C17.279 157.551 18.4584 161.914 21.8199 163.86L61.6853 186.856C58.147 196.821 55.3163 207.198 53.3112 217.812H7.07671C3.18452 217.812 0 220.996 0 224.887V286.21C0 290.101 3.18452 293.285 7.07671 293.285H53.0753C55.0214 303.899 57.7931 314.276 61.2725 324.3L21.2891 347.355C17.9277 349.301 16.7482 353.664 18.6943 357.025L49.3601 410.151C51.3062 413.512 55.6701 414.691 59.0316 412.746L98.897 389.75C105.856 397.887 113.404 405.493 121.542 412.451L98.4842 452.428C96.5381 455.789 97.7176 460.152 101.079 462.098L154.213 492.759C157.575 494.705 161.939 493.526 163.885 490.165L185.297 462.098C167.948 435.538 157.723 417.722 149.718 370.182C135.21 355.677 118.535 336.27 110.574 317.519C102.376 298.061 98.1894 277.424 98.1894 256.079C98.1894 234.734 102.376 214.097 110.574 194.639C118.535 175.83 129.917 158.966 144.424 144.461C158.931 129.956 175.856 118.576 194.61 110.616C214.07 102.42 234.711 98.2334 256.059 98.2334C277.407 98.2334 298.047 102.42 317.508 110.616C336.321 118.576 353.187 129.956 367.694 144.461C382.201 158.966 393.583 175.889 401.544 194.639C409.742 214.097 413.929 234.734 413.929 256.079C413.929 277.424 409.742 298.061 401.544 317.519C394.043 336.834 389.521 344.782 381.239 357.025L390.166 420.425C398.304 413.468 405.554 398.594 412.513 390.457L452.497 413.571C455.858 415.517 460.222 414.338 462.168 410.977L492.834 357.85C494.78 354.489 493.601 350.126 490.239 348.18L450.433 325.184C453.971 315.22 456.802 304.842 458.748 294.229H504.923C508.815 294.229 512 291.045 512 287.153V225.772C512 221.88 508.815 218.696 504.923 218.696Z" fill="#1D50A2"/>
<path fill-rule="evenodd" clip-rule="evenodd" d="M316.684 512C319.75 512 320.377 511.106 322.462 510.389C318.997 505.796 321.997 500.395 326.55 498.687V461.971C320.289 458.27 322.177 448.779 328.438 444.837H376.305C376.906 440.705 377.377 438.42 377.369 434.055L372.825 384.079L364.647 340.463L351.435 263.391V225.329C351.435 189.087 350.453 182.17 325.279 156.149C301.713 131.825 270.648 117.141 237.128 114.329C235.253 114.061 229.63 113.927 229.273 113.972C219.944 114.418 211.151 117.899 204.099 123.88C176.739 125.398 153.485 143.607 145.629 170.119C144.781 172.931 145.495 175.966 147.459 178.108C149.468 180.25 152.413 181.232 155.27 180.652C159.956 179.715 164.777 179.224 169.642 179.224C181.247 179.224 192.807 182.036 203.162 187.302C203.43 187.436 210.839 192.167 211.865 193.194C211.865 193.194 211.91 193.194 211.91 193.238C211.91 193.261 211.91 193.272 211.916 193.283C211.921 193.294 211.933 193.305 211.955 193.328C220.524 201.852 225.255 213.233 225.255 225.329C225.255 237.379 220.524 248.76 211.955 257.33C184.103 285.18 168.749 322.18 168.749 361.546C168.842 405.569 180.479 422.8 199.916 451.579C200.733 452.788 201.563 454.017 202.407 455.27C205.403 458.893 208.588 462.394 211.955 465.761C212.624 466.431 213.294 467.1 214.008 467.725C204.545 469.555 185.183 487.569 185.183 497.522C185.183 508.859 206.599 512 217.936 512H316.684ZM159.746 168.191C159.171 155.46 186.56 132.57 197.464 136.068C214.084 145.016 204.42 172.027 204.42 172.027C199.865 169.029 172.287 167.128 168.252 168.191C164.216 169.255 160.481 169.427 159.746 168.191ZM250.199 149.48C250.199 154.049 246.495 157.752 241.927 157.752C237.359 157.752 233.655 154.049 233.655 149.48C233.655 144.912 237.359 141.209 241.927 141.209C246.495 141.209 250.199 144.912 250.199 149.48ZM191.963 394.134C181.814 361.394 182.103 332.017 210.286 288.388C214.483 283.099 217.919 278.313 221.041 273.963C228.897 263.018 236.433 259.096 247.677 253.243C248.497 252.816 249.337 252.379 250.199 251.928C251.312 257.405 252.277 264.219 253.329 271.644C255.636 287.93 258.36 307.157 263.977 321.668C265.143 323.668 266.379 325.722 267.653 327.839C271.63 334.448 275.976 341.671 279.695 349.778C288.575 369.137 294.217 389.879 297.887 408.337C301.86 428.325 303.522 445.632 304.478 455.6L304.478 455.602L304.573 456.592C304.634 457.224 304.692 457.822 304.748 458.386C301.423 459.561 297.569 460.457 293.33 461.097C271.605 464.378 245.864 459.703 223.54 452.428C207.701 433.558 198.047 413.761 191.963 394.134Z" fill="#1D50A2"/>
<path d="M368.661 486.548H345.955V501.606H347.614C350.172 501.606 351.986 502.096 353.057 503.077C354.163 504.023 354.716 505.274 354.716 506.829C354.716 508.35 354.163 509.6 353.057 510.58C351.986 511.527 350.172 512 347.614 512H334.602C332.045 512 330.213 511.527 329.107 510.58C328.036 509.6 327.5 508.333 327.5 506.778C327.5 504.885 328.347 503.415 330.04 502.367C330.87 501.826 332.632 501.573 335.328 501.606V460.944C333.462 460.775 332.045 460.218 331.077 459.271C330.144 458.325 329.677 457.142 329.677 455.722C329.677 454.167 330.213 452.917 331.284 451.97C332.39 450.99 334.222 450.5 336.779 450.5L347.614 450.551C350.172 450.551 351.986 451.024 353.057 451.97C354.163 452.917 354.716 454.167 354.716 455.722C354.716 457.277 354.163 458.545 353.057 459.525C351.986 460.471 350.172 460.944 347.614 460.944H345.955V476.155H368.661V460.944H367.002C364.445 460.944 362.613 460.471 361.507 459.525C360.436 458.545 359.9 457.277 359.9 455.722C359.9 454.167 360.436 452.917 361.507 451.97C362.613 450.99 364.445 450.5 367.002 450.5L377.837 450.551C380.394 450.551 382.209 451.024 383.28 451.97C384.386 452.917 384.939 454.167 384.939 455.722C384.939 457.142 384.455 458.325 383.488 459.271C382.555 460.218 381.155 460.775 379.289 460.944V501.606C382.019 501.606 383.781 501.86 384.576 502.367C386.27 503.415 387.116 504.902 387.116 506.829C387.116 508.35 386.564 509.6 385.458 510.58C384.386 511.527 382.572 512 380.014 512H367.002C364.445 512 362.613 511.527 361.507 510.58C360.436 509.6 359.9 508.333 359.9 506.778C359.9 505.257 360.453 504.023 361.559 503.077C362.665 502.096 364.479 501.606 367.002 501.606H368.661V486.548Z" fill="#1D50A2"/>
<path d="M426.1 460.944V501.606H436.831C439.389 501.606 441.203 502.096 442.275 503.077C443.381 504.023 443.934 505.274 443.934 506.829C443.934 508.35 443.381 509.6 442.275 510.58C441.203 511.527 439.389 512 436.831 512H404.742C402.185 512 400.353 511.527 399.247 510.58C398.176 509.6 397.64 508.333 397.64 506.778C397.64 505.257 398.176 504.023 399.247 503.077C400.353 502.096 402.185 501.606 404.742 501.606H415.473V460.944H404.742C402.185 460.944 400.353 460.471 399.247 459.525C398.176 458.545 397.64 457.277 397.64 455.722C397.64 454.167 398.176 452.917 399.247 451.97C400.353 450.99 402.185 450.5 404.742 450.5L436.831 450.551C439.389 450.551 441.203 451.024 442.275 451.97C443.381 452.917 443.934 454.167 443.934 455.722C443.934 457.277 443.381 458.545 442.275 459.525C441.203 460.471 439.389 460.944 436.831 460.944H426.1Z" fill="#1D50A2"/>
<path d="M489.709 460.944V501.606H496.863C499.42 501.606 501.234 502.096 502.306 503.077C503.412 504.023 503.965 505.274 503.965 506.829C503.965 508.35 503.412 509.6 502.306 510.58C501.234 511.527 499.42 512 496.863 512H471.979C469.422 512 467.59 511.527 466.484 510.58C465.413 509.6 464.877 508.333 464.877 506.778C464.877 505.257 465.413 504.023 466.484 503.077C467.59 502.096 469.422 501.606 471.979 501.606H479.081V460.944H467.573V470.78C467.573 473.282 467.072 475.073 466.069 476.155C465.102 477.202 463.823 477.726 462.233 477.726C460.678 477.726 459.399 477.202 458.397 476.155C457.429 475.073 456.945 473.282 456.945 470.78V450.5L512 450.551V470.78C512 473.282 511.499 475.073 510.497 476.155C509.529 477.202 508.25 477.726 506.66 477.726C505.105 477.726 503.827 477.202 502.824 476.155C501.857 475.073 501.373 473.282 501.373 470.78V460.944H489.709Z" fill="#1D50A2"/>
</svg>
