<svg width="512" height="512" viewBox="0 0 512 512" fill="none" xmlns="http://www.w3.org/2000/svg">
<path fill-rule="evenodd" clip-rule="evenodd" d="M390.166 478.401C394.763 478.401 398.468 482.105 398.468 486.703C398.468 491.3 394.763 495.004 390.166 495.004C387.131 495.004 384.096 495.049 381.194 494.602C370.142 493.648 366.69 493.139 361.885 490.517C360.032 489.506 357.977 488.18 355.209 486.394C354.081 485.666 352.834 484.862 351.435 483.971C348.065 479.597 345.585 478.046 341.567 480.585C340.372 481.34 339.04 482.458 337.509 483.971C337.016 486.086 336.589 488.13 336.181 490.085C333.489 502.981 331.606 512 316.684 512H217.936C206.599 512 185.183 508.859 185.183 497.522C185.183 487.569 204.545 469.555 214.008 467.725C213.294 467.1 212.624 466.431 211.955 465.761C208.588 462.394 205.403 458.893 202.407 455.27C181.477 424.201 168.846 407.419 168.749 361.546C168.749 322.18 184.103 285.18 211.955 257.33C220.524 248.76 225.255 237.379 225.255 225.329C225.255 213.233 220.524 201.852 211.955 193.328C211.91 193.283 211.91 193.283 211.91 193.238C211.91 193.194 211.865 193.194 211.865 193.194C210.839 192.167 203.43 187.436 203.162 187.302C192.807 182.036 181.247 179.224 169.642 179.224C164.777 179.224 159.956 179.715 155.27 180.652C152.413 181.232 149.468 180.25 147.459 178.108C145.495 175.966 144.781 172.931 145.629 170.119C153.485 143.607 176.739 125.398 204.099 123.88C211.151 117.899 219.944 114.418 229.273 113.972C229.63 113.927 235.253 114.061 237.128 114.329C270.648 117.141 301.713 131.825 325.279 156.149C350.453 182.17 351.435 189.087 351.435 225.329V263.391L364.647 340.463L372.825 384.079L377.369 434.055C377.409 455.271 366.127 475.458 383.622 477.973C385.597 478.257 387.771 478.401 390.166 478.401ZM197.464 136.068C186.56 132.57 159.171 155.46 159.746 168.191C160.481 169.427 164.216 169.255 168.252 168.191C172.287 167.128 199.865 169.029 204.42 172.027C204.42 172.027 214.084 145.016 197.464 136.068ZM241.927 157.752C246.495 157.752 250.199 154.049 250.199 149.48C250.199 144.912 246.495 141.209 241.927 141.209C237.359 141.209 233.655 144.912 233.655 149.48C233.655 154.049 237.359 157.752 241.927 157.752ZM210.286 288.388C182.103 332.017 181.814 361.394 191.963 394.134C198.047 413.761 207.701 433.558 223.54 452.428C245.864 459.703 271.605 464.378 293.33 461.097C297.569 460.457 301.423 459.561 304.748 458.386C304.692 457.822 304.634 457.224 304.573 456.592C304.542 456.271 304.511 455.94 304.478 455.602L304.478 455.6C303.522 445.632 301.861 428.324 297.887 408.337C294.217 389.879 288.575 369.137 279.695 349.778C274.785 339.073 268.781 329.912 263.977 321.668C255.799 300.541 253.754 269.42 250.199 251.928C237.53 258.561 229.47 262.22 221.041 273.963C217.919 278.313 214.483 283.099 210.286 288.388Z" fill="black"/>
<path d="M504.923 218.696H458.866C456.92 208.083 454.148 197.705 450.668 187.74L490.711 164.626C494.072 162.681 495.252 158.317 493.306 154.956L462.64 101.83C460.694 98.4693 456.33 97.29 452.968 99.2358L413.044 122.291C406.085 114.154 398.537 106.606 390.457 99.5896L413.634 59.4943C415.58 56.1334 414.4 51.7701 411.039 49.8243L357.905 19.1632C354.543 17.2174 350.179 18.3967 348.233 21.7576L325.175 61.676C315.208 58.1381 304.888 55.3079 294.273 53.3621V7.07564C294.273 3.18404 291.089 0 287.197 0H225.865C221.973 0 218.788 3.18404 218.788 7.07564V53.1852C208.173 55.131 197.853 57.9023 187.828 61.3811L164.71 21.3448C162.764 17.9839 158.4 16.8046 155.039 18.7504L101.905 49.4115C98.5432 51.3573 97.3637 55.7206 99.3098 59.0816L122.368 98.9999C114.23 105.958 106.622 113.505 99.6637 121.583L59.5623 98.4693C56.2009 96.5235 51.8369 97.7028 49.8908 101.064L19.2251 154.19C17.279 157.551 18.4584 161.914 21.8199 163.86L61.6853 186.856C58.147 196.821 55.3163 207.198 53.3112 217.812H7.07671C3.18452 217.812 0 220.996 0 224.887V286.21C0 290.101 3.18452 293.285 7.07671 293.285H53.0753C55.0214 303.899 57.7931 314.276 61.2725 324.3L21.2891 347.355C17.9277 349.301 16.7482 353.664 18.6943 357.025L49.3601 410.151C51.3061 413.512 55.6701 414.691 59.0316 412.745L98.897 389.75C105.856 397.887 113.404 405.493 121.542 412.451L98.4842 452.428C96.5381 455.789 97.7176 460.152 101.079 462.098L154.213 492.759C157.575 494.705 161.939 493.526 163.885 490.165L185.297 462.098C167.948 435.538 157.723 417.722 149.718 370.182C135.21 355.677 118.535 336.27 110.574 317.519C102.376 298.061 98.1894 277.424 98.1894 256.079C98.1894 234.734 102.376 214.097 110.574 194.639C118.535 175.83 129.917 158.966 144.424 144.461C158.931 129.956 175.856 118.576 194.61 110.616C214.07 102.42 234.711 98.2334 256.059 98.2334C277.407 98.2334 298.047 102.42 317.508 110.616C336.321 118.576 353.187 129.956 367.694 144.461C382.201 158.966 393.583 175.889 401.544 194.639C409.742 214.097 413.929 234.734 413.929 256.079C413.929 277.424 409.742 298.061 401.544 317.519C394.043 336.834 389.521 344.782 381.239 357.025L390.166 420.425C398.304 413.468 405.554 398.594 412.513 390.457L452.497 413.571C455.858 415.517 460.222 414.338 462.168 410.977L492.834 357.85C494.78 354.489 493.6 350.126 490.239 348.18L450.433 325.184C453.971 315.22 456.802 304.842 458.748 294.229H504.923C508.815 294.229 512 291.045 512 287.153V225.772C512 221.88 508.815 218.696 504.923 218.696Z" fill="black"/>
</svg>
