<svg width="512" height="512" viewBox="0 0 512 512" fill="none" xmlns="http://www.w3.org/2000/svg">
<rect width="512" height="512" fill="white"/>
<path fill-rule="evenodd" clip-rule="evenodd" d="M373.723 451.454C377.756 451.454 381 454.708 381 458.753C381 462.798 377.756 466.051 373.723 466.051C371.006 466.051 368.376 466.051 365.833 465.7C356.102 464.82 353.121 464.381 348.913 462.094C347.247 461.215 345.494 460.072 343.039 458.489C342.075 457.873 340.935 457.17 339.708 456.379C336.815 452.509 334.623 451.103 331.116 453.389C330.064 454.004 328.837 455.06 327.522 456.379C327.083 458.225 326.733 459.984 326.382 461.743C324.015 473.086 322.349 481 309.286 481H222.669C212.762 481 194.001 478.274 194.001 468.25C194.001 459.544 210.921 443.716 219.25 442.045C218.636 441.518 218.022 440.902 217.496 440.375C214.516 437.385 211.71 434.307 209.08 431.142C190.757 403.794 179.623 389.021 179.536 348.66C179.536 314.102 193.037 281.566 217.496 257.033C224.948 249.558 229.157 239.534 229.157 228.894C229.157 218.254 224.948 208.317 217.496 200.755C217.409 200.755 217.409 200.755 217.409 200.667C216.444 199.788 209.957 195.567 209.782 195.479C200.664 190.818 190.494 188.356 180.325 188.356C176.116 188.356 171.908 188.796 167.788 189.675C165.245 190.115 162.703 189.324 160.95 187.389C159.196 185.542 158.583 182.816 159.284 180.354C166.21 157.052 186.549 141.048 210.571 139.729C216.795 134.453 224.422 131.375 232.663 131.023C232.926 130.935 237.923 131.111 239.502 131.287C268.871 133.749 296.136 146.676 316.826 168.044C338.919 190.994 339.708 197.062 339.708 228.894V262.397L351.28 330.193L358.469 368.533L362.502 412.5C362.502 431.142 352.595 448.904 367.937 451.103C369.691 451.366 371.619 451.454 373.723 451.454ZM204.784 150.457C195.228 147.379 171.207 167.516 171.645 178.684C172.347 179.739 175.59 179.651 179.185 178.684C182.692 177.716 206.888 179.387 210.834 182.025C210.834 182.025 219.338 158.283 204.784 150.457ZM243.71 169.538C247.742 169.538 250.986 166.197 250.986 162.24C250.986 158.195 247.742 154.941 243.71 154.941C239.765 154.941 236.521 158.195 236.521 162.24C236.521 166.197 239.765 169.538 243.71 169.538ZM216.006 284.38C191.283 322.719 191.02 348.572 199.963 377.326C205.223 394.649 213.727 412.06 227.578 428.591C247.216 435.011 269.747 439.144 288.772 436.242C292.542 435.714 295.873 434.923 298.766 433.867C298.766 433.34 298.678 432.812 298.678 432.285C298.591 432.021 298.591 431.669 298.591 431.405C297.714 422.612 296.311 407.399 292.805 389.813C289.561 373.633 284.651 355.343 276.849 338.371C272.553 328.962 267.293 320.873 263.085 313.662C255.896 295.02 254.142 267.673 250.986 252.284C239.852 258.176 232.839 261.341 225.387 271.717C222.669 275.499 219.688 279.719 216.006 284.38Z" fill="#462929"/>
<path d="M474.76 223.252H434.33C432.572 213.934 430.111 204.792 427.123 196.001L462.279 175.695C465.268 174.024 466.322 170.157 464.564 167.256L437.582 120.489C435.912 117.588 432.045 116.533 429.145 118.204L393.988 138.51C387.924 131.39 381.244 124.709 374.213 118.555L394.516 83.3046C396.273 80.3157 395.219 76.5357 392.23 74.7776L345.561 47.8781C342.572 46.12 338.793 47.1749 337.035 50.1637L316.82 85.2385C308.031 82.0739 298.979 79.6125 289.662 77.9422V37.2414C289.662 33.813 286.85 31 283.422 31H229.545C226.117 31 223.305 33.813 223.305 37.2414V77.7664C213.988 79.4367 204.936 81.8981 196.059 84.9748L175.756 49.7242C174.086 46.8232 170.219 45.7683 167.23 47.5265L120.561 74.426C117.572 76.1841 116.605 79.9641 118.275 82.9529L138.578 118.028C131.371 124.181 124.691 130.774 118.627 137.895L83.3828 117.588C80.3945 115.83 76.5273 116.885 74.8574 119.874L47.875 166.552C46.2051 169.541 47.2598 173.321 50.1602 175.079L85.2285 195.298C82.0645 204.001 79.6035 213.143 77.8457 222.461H37.2402C33.8125 222.461 31 225.274 31 228.702V282.589C31 286.018 33.8125 288.831 37.2402 288.831H77.6699C79.3398 298.149 81.8008 307.291 84.877 316.082L49.7207 336.388C46.7324 338.059 45.6777 341.926 47.4355 344.827L74.418 391.594C76.0879 394.495 79.9551 395.55 82.8555 393.792L117.924 373.661C124.076 380.781 130.668 387.462 137.787 393.616L117.572 428.691C115.814 431.679 116.869 435.547 119.857 437.217L166.527 464.205C169.516 465.875 173.295 464.82 175.053 461.919L193.861 437.217C178.568 413.834 169.604 398.187 162.572 356.431C149.828 343.685 135.15 326.631 128.207 310.104C121 293.05 117.309 274.854 117.309 256.129C117.309 237.317 121 219.209 128.207 202.067C135.15 185.54 145.17 170.772 157.914 158.025C170.658 145.279 185.6 135.258 202.035 128.225C219.174 121.017 237.279 117.325 256.088 117.325C274.809 117.325 292.914 121.017 310.053 128.225C326.576 135.258 341.43 145.279 354.174 158.025C366.918 170.772 376.937 185.628 383.881 202.067C391.088 219.209 394.779 237.317 394.779 256.129C394.779 274.854 391.088 293.05 383.881 310.104C377.289 327.07 373.334 334.103 366.039 344.827L373.949 400.56C381.068 394.495 387.484 381.397 393.549 374.276L428.705 394.583C431.693 396.253 435.473 395.198 437.23 392.297L464.125 345.619C465.883 342.63 464.828 338.762 461.84 337.092L426.859 316.873C430.023 308.082 432.484 298.94 434.154 289.622H474.76C478.187 289.622 481 286.809 481 283.468V229.494C481 226.065 478.187 223.252 474.76 223.252Z" fill="#462929"/>
<path d="M204.784 150.457C195.228 147.379 171.207 167.516 171.645 178.684C172.347 179.739 175.59 179.651 179.185 178.684C182.692 177.716 206.888 179.387 210.834 182.025C210.834 182.025 219.338 158.283 204.784 150.457Z" fill="#FFCC66"/>
</svg>
